<?xml version="1.0" standalone="no"?>
<!DOCTYPE svg PUBLIC "-//W3C//DTD SVG 20010904//EN"
 "http://www.w3.org/TR/2001/REC-SVG-20010904/DTD/svg10.dtd">
<svg version="1.0" xmlns="http://www.w3.org/2000/svg"
 width="512.000000pt" height="512.000000pt" viewBox="0 0 512.000000 512.000000"
 preserveAspectRatio="xMidYMid meet">
<metadata>
Created by potrace 1.11, written by Peter Selinger 2001-2013
</metadata>
<g transform="translate(0.000000,512.000000) scale(0.100000,-0.100000)"
fill="#000000" stroke="none">
<path d="M2440 4006 c-89 -23 -164 -88 -201 -172 -15 -32 -45 -273 -131 -1030
l-111 -989 16 -57 c29 -96 109 -181 198 -207 19 -6 136 -22 260 -36 123 -13
244 -27 268 -31 l44 -6 -22 31 c-12 16 -32 54 -45 83 l-24 53 -213 24 c-118
13 -225 29 -239 36 -38 20 -71 60 -79 97 -5 21 6 156 30 368 21 184 68 598
104 920 36 322 70 610 75 640 14 79 59 122 132 127 29 2 188 -12 353 -31 238
-28 302 -32 310 -22 37 46 54 65 87 93 l38 32 -33 5 c-46 8 -745 86 -760 85
-6 0 -32 -6 -57 -13z"/>
<path d="M1740 3919 c-217 -23 -382 -45 -407 -54 -91 -35 -173 -138 -188 -235
-4 -28 14 -246 49 -590 31 -300 76 -739 100 -976 36 -356 48 -440 65 -480 26
-57 70 -106 126 -139 78 -46 106 -47 403 -18 149 15 272 30 272 33 0 4 -18 15
-40 25 -23 10 -62 38 -88 62 l-47 44 -175 -17 c-183 -18 -231 -15 -266 14 -52
44 -49 24 -149 1002 -53 514 -96 958 -97 987 -1 63 27 114 75 136 21 11 153
28 379 51 190 20 353 36 362 36 9 0 16 6 16 14 0 7 15 43 33 80 l34 66 -46 -1
c-25 -1 -210 -19 -411 -40z"/>
<path d="M3420 3876 c-86 -23 -148 -75 -190 -157 -23 -43 -450 -1925 -450
-1980 0 -91 55 -191 137 -246 44 -30 103 -45 693 -179 702 -159 718 -161 806
-116 98 50 146 117 176 245 10 45 107 471 215 947 147 645 197 882 197 931 0
129 -85 241 -213 279 -105 31 -1265 290 -1297 289 -16 0 -49 -6 -74 -13z m727
-284 c345 -79 623 -146 638 -156 37 -24 65 -75 65 -118 0 -21 -49 -255 -109
-520 -60 -266 -155 -685 -211 -932 -56 -247 -105 -457 -110 -467 -16 -28 -67
-67 -100 -74 -33 -7 -1262 265 -1312 291 -15 8 -35 25 -43 38 -42 63 -44 46
126 800 252 1119 269 1189 285 1214 23 35 75 62 119 62 22 0 315 -62 652 -138z"/>
<path d="M3580 3016 c-118 -26 -201 -94 -253 -204 -40 -85 -41 -175 -5 -272
21 -57 388 -662 423 -699 11 -12 62 16 326 180 334 207 420 274 467 363 24 45
27 62 27 151 0 91 -3 105 -30 158 -63 125 -184 199 -327 200 -69 1 -84 -3
-150 -36 l-73 -37 -14 23 c-8 12 -40 47 -71 78 -87 86 -205 122 -320 95z"/>
<path d="M681 3654 c-202 -58 -384 -115 -407 -129 -80 -47 -132 -133 -141
-234 -6 -61 -26 15 378 -1411 83 -294 159 -551 170 -571 10 -20 41 -57 70 -83
63 -57 136 -81 218 -73 43 4 487 123 571 153 9 3 -5 12 -35 22 -27 10 -72 33
-99 51 l-48 34 -208 -58 -209 -58 -45 17 c-25 10 -55 30 -66 46 -12 17 -112
350 -249 837 -330 1166 -304 1065 -291 1111 20 78 41 87 413 192 320 90 338
96 343 120 8 47 23 105 29 123 5 12 2 17 -11 16 -11 0 -183 -48 -383 -105z"/>
<path d="M2064 3429 c-6 -8 -21 -41 -34 -74 -87 -225 -242 -466 -404 -625 -41
-40 -66 -73 -66 -86 0 -17 27 -40 113 -97 61 -42 150 -109 197 -150 47 -42 86
-72 87 -69 6 19 124 1095 121 1104 -2 6 -8 5 -14 -3z"/>
<path d="M2775 3114 c-278 -215 -332 -265 -377 -348 -30 -56 -33 -68 -33 -151
0 -77 4 -98 27 -147 32 -69 106 -145 168 -176 91 -44 223 -52 234 -14 18 59
226 999 224 1009 -2 7 -111 -71 -243 -173z"/>
<path d="M1030 3159 c-93 -56 -162 -160 -175 -264 -9 -66 15 -165 53 -220 15
-22 30 -45 34 -51 5 -8 -11 -21 -46 -38 -96 -47 -168 -144 -184 -250 -24 -151
51 -297 187 -363 49 -25 67 -28 151 -28 70 0 103 4 126 17 l30 16 -38 374
c-21 205 -48 474 -61 597 -12 123 -27 226 -32 228 -6 1 -26 -7 -45 -18z"/>
<path d="M2708 2142 c-46 -3 -47 -4 -53 -43 -4 -22 -5 -42 -3 -43 1 -2 22 -6
45 -9 43 -5 43 -5 53 35 16 57 12 63 -42 60z"/>
<path d="M1192 1871 c-11 -6 -11 -17 -2 -50 14 -52 30 -44 30 15 0 45 -4 50
-28 35z"/>
</g>
</svg>
